<svg class="rbds-attach-document-icon {{ icon_classes }}" width="24" height="24" viewBox="0 0 24 24" fill="none" xmlns="http://www.w3.org/2000/svg">
    <g clip-path="url(#clip0_771_609)">
    <path d="M19.5 22.5H8.25C7.85232 22.4995 7.47105 22.3414 7.18984 22.0602C6.90864 21.7789 6.75046 21.3977 6.75 21V16.5H8.25V21H19.5V4.5H12.75V3H19.5C19.8977 3.00046 20.279 3.15864 20.5602 3.43984C20.8414 3.72105 20.9995 4.10232 21 4.5V21C20.9995 21.3977 20.8414 21.7789 20.5602 22.0602C20.279 22.3414 19.8977 22.4995 19.5 22.5Z" fill="black"/>
    <path d="M18 7.5H12.75V9H18V7.5Z" fill="black"/>
    <path d="M18 11.25H12V12.75H18V11.25Z" fill="black"/>
    <path d="M18 15H11.25V16.5H18V15Z" fill="black"/>
    <path d="M6.75 14.25C5.75577 14.2489 4.80258 13.8535 4.09956 13.1504C3.39653 12.4474 3.00109 11.4942 3 10.5V2.25H4.5V10.5C4.5 11.0967 4.73705 11.669 5.15901 12.091C5.58097 12.5129 6.15326 12.75 6.75 12.75C7.34674 12.75 7.91903 12.5129 8.34099 12.091C8.76295 11.669 9 11.0967 9 10.5V3.75C9 3.55109 8.92098 3.36032 8.78033 3.21967C8.63968 3.07902 8.44891 3 8.25 3C8.05109 3 7.86032 3.07902 7.71967 3.21967C7.57902 3.36032 7.5 3.55109 7.5 3.75V11.25H6V3.75C6 3.15326 6.23705 2.58097 6.65901 2.15901C7.08097 1.73705 7.65326 1.5 8.25 1.5C8.84674 1.5 9.41903 1.73705 9.84099 2.15901C10.2629 2.58097 10.5 3.15326 10.5 3.75V10.5C10.4989 11.4942 10.1035 12.4474 9.40044 13.1504C8.69742 13.8535 7.74423 14.2489 6.75 14.25Z" fill="black"/>
    </g>
    <defs>
    <clipPath id="clip0_771_609">
    <rect width="24" height="24" fill="white"/>
    </clipPath>
    </defs>
</svg>
