<svg width="22" height="21" viewBox="0 0 22 21" fill="none" xmlns="http://www.w3.org/2000/svg">
    <path d="M18.5 7H14V2.5C13.9993 1.90346 13.7621 1.33155 13.3403 0.909733C12.9185 0.487918 12.3465 0.250655 11.75 0.25H10.1504C9.7897 0.251446 9.44149 0.382212 9.169 0.618547C8.89652 0.854881 8.71783 1.18111 8.6654 1.53797L8.03142 5.97535L5.3486 10H0.5V20.5H16.25C17.6419 20.4985 18.9764 19.9448 19.9606 18.9606C20.9448 17.9764 21.4985 16.6419 21.5 15.25V10C21.4991 9.20463 21.1828 8.44208 20.6203 7.87967C20.0579 7.31725 19.2954 7.00089 18.5 7ZM5 19H2V11.5H5V19ZM20 15.25C19.9989 16.2442 19.6034 17.1974 18.9004 17.9004C18.1974 18.6034 17.2442 18.9989 16.25 19H6.5V10.977L9.46835 6.52465L10.1504 1.75H11.75C11.9489 1.75016 12.1395 1.82923 12.2802 1.96985C12.4208 2.11046 12.4998 2.30114 12.5 2.5V8.5H18.5C18.8977 8.5005 19.2789 8.65869 19.5601 8.93989C19.8413 9.22109 19.9995 9.60233 20 10V15.25Z" fill="#1D70B8"/>
    </svg>
