<svg width="22" height="21" viewBox="0 0 22 21" fill="none" xmlns="http://www.w3.org/2000/svg">
    <path d="M21.5 11V5.75C21.4985 4.35809 20.9448 3.02363 19.9606 2.0394C18.9764 1.05517 17.6419 0.501548 16.25 0.5H0.5V11H5.3486L8.03165 15.0246L8.66562 19.462C8.71805 19.8189 8.8967 20.1451 9.16914 20.3814C9.44158 20.6177 9.78974 20.7485 10.1504 20.75H11.75C12.3465 20.7493 12.9185 20.5121 13.3403 20.0903C13.7621 19.6685 13.9993 19.0965 14 18.5V14H18.5C19.2954 13.9991 20.0579 13.6827 20.6203 13.1203C21.1828 12.5579 21.4991 11.7954 21.5 11ZM5 9.5H2V2H5V9.5ZM20 11C19.9995 11.3977 19.8413 11.7789 19.5601 12.0601C19.2789 12.3413 18.8977 12.4995 18.5 12.5H12.5V18.5C12.4998 18.6989 12.4208 18.8895 12.2802 19.0302C12.1395 19.1708 11.9489 19.2498 11.75 19.25H10.1504L9.46835 14.4754L6.5 10.023V2H16.25C17.2442 2.00113 18.1974 2.39658 18.9004 3.0996C19.6034 3.80262 19.9989 4.75579 20 5.75V11Z" fill="#1D70B8"/>
    </svg>
